<svg id="Layer_1" data-name="Layer 1" xmlns="http://www.w3.org/2000/svg" xmlns:xlink="http://www.w3.org/1999/xlink" viewBox="0 0 310.54 132"><defs><style>.cls-1{fill:#edf4ff;}.cls-2{fill:#82b378;}.cls-3{fill:#2e3552;}.cls-4{fill:#233862;}.cls-5{fill:#b8c7dd;}.cls-6{fill:#293c54;}.cls-7{fill:#0c2c51;}.cls-8{fill:#e69d43;}.cls-9{fill:#d57912;}.cls-10{fill:#b65615;}.cls-11{fill:#d36e2a;}.cls-12{fill:#52647f;}.cls-13{fill:#c6c6c6;}.cls-14,.cls-38{fill:#fff;}.cls-15{fill:#dce7f9;}.cls-16{fill:#051730;}.cls-17{fill:url(#Adsız_degrade_4);}.cls-18{fill:#39475b;}.cls-19{fill:#20262d;}.cls-20{fill:#051123;}.cls-21{fill:#072659;}.cls-22{fill:#4f4f4f;}.cls-23{fill:#0f0f0f;}.cls-24{fill:#2d2824;}.cls-25{fill:#a03c37;}.cls-26{fill:#ffb27d;}.cls-27{fill:#2b478b;}.cls-28{fill:#ffb07b;}.cls-29{fill:#b64c41;}.cls-30{fill:#ea8e50;}.cls-31{fill:#2c3a64;}.cls-32{fill:#ed975d;}.cls-33{fill:#ed985f;}.cls-34{fill:#0a2342;}.cls-35{fill:none;stroke:#072659;stroke-miterlimit:10;}.cls-36{fill:#001474;}.cls-37{fill:#00188a;}.cls-38{font-size:2.79px;font-family:OpenSans-Regular, Open Sans;}</style><linearGradient id="Adsız_degrade_4" x1="24.86" y1="111.63" x2="151.85" y2="42.18" gradientUnits="userSpaceOnUse"><stop offset="0.38" stop-color="#fff"/><stop offset="1" stop-color="#a6bbd2"/></linearGradient></defs><path class="cls-1" d="M212.58,44.08C199,49.2,186,42.56,170.64,32.83a54.59,54.59,0,0,1-4.75-3c-3.27-2.13-6.67-4.36-10.21-6.6-39-22.75-104.86-37-138.39,8.52C-14.12,74.35,5.64,117,12,128.38c.82,1.4,1.39,2.34,1.63,2.73a1.65,1.65,0,0,1,.12.21l290.61.07c0-.09,0-.19,0-.28C318.67,25.76,250.1,30,212.58,44.08ZM125,97.55c-15.77,1.18-27.84-1.92-37-7a53,53,0,0,1-13.69-11A62.44,62.44,0,0,1,64,63.61c-.61-1.32-1.14-2.59-1.6-3.8A60.5,60.5,0,0,1,59.14,48.5a76.61,76.61,0,0,0,15.14,26A66.86,66.86,0,0,0,88,86.23c9.37,6,21.46,10.44,37.05,11.3Z"/><path class="cls-2" d="M265.67,130.86c-.49-.77-2-2.77-3.94-2.51-2.14.29,2.37,1.71,3.75,2.52a2.36,2.36,0,0,1-.76-.09,5.06,5.06,0,0,0-3,.53h8.8a1.41,1.41,0,0,0-.63-.81,1.56,1.56,0,0,0-.81-.07c.52-.62.88-2.59-.57-2.08-1.07.37-1.06,1.57-1,2.29l-.68.1c-.44-2.23-2-8.78-5.13-9s2.7,6.78,4.66,9Z"/><path class="cls-3" d="M310.1,132H1a.45.45,0,0,1-.45-.44h0a.45.45,0,0,1,.45-.45H310.1a.45.45,0,0,1,.44.45h0A.44.44,0,0,1,310.1,132Z"/><circle class="cls-4" cx="60.16" cy="120.12" r="11.11" transform="translate(-5.12 2.7) rotate(-2.47)"/><circle class="cls-5" cx="60.76" cy="120.12" r="6.36" transform="translate(-11.54 6.57) rotate(-5.65)"/><circle class="cls-6" cx="60.76" cy="120.97" r="1.65"/><circle class="cls-6" cx="57.95" cy="123.81" r="0.64"/><circle class="cls-6" cx="65.19" cy="119.31" r="0.64"/><circle class="cls-6" cx="61.14" cy="116.37" r="0.64"/><circle class="cls-6" cx="56.84" cy="118.78" r="0.67"/><circle class="cls-6" cx="63.71" cy="123.81" r="0.64"/><path class="cls-7" d="M174.67,111.49H88v-21c9.21,5.13,21.28,8.23,37.05,7v0c-15.59-.86-27.68-5.29-37-11.3V46h77.38Z"/><path class="cls-4" d="M171.06,111.49H74.28v-32A53,53,0,0,0,88,90.5c9.21,5.13,21.28,8.23,37.05,7v0c-15.59-.86-27.68-5.29-37-11.3A66.86,66.86,0,0,1,74.28,74.54V48.22H162Z"/><rect class="cls-8" x="124.14" y="99.4" width="11.92" height="12.09" transform="translate(260.21 210.89) rotate(180)"/><rect class="cls-9" x="135.57" y="99.4" width="5.46" height="12.09" transform="translate(276.6 210.89) rotate(180)"/><rect class="cls-8" x="123.51" y="87.64" width="19.77" height="11.92" transform="translate(266.79 187.21) rotate(180)"/><rect class="cls-9" x="142.79" y="87.64" width="5.46" height="11.92" transform="translate(291.04 187.21) rotate(180)"/><rect class="cls-10" x="13.7" y="103.77" width="27.71" height="12.29" rx="6.15"/><circle class="cls-4" cx="117.62" cy="120.12" r="11.11" transform="translate(-4.89 4.99) rotate(-2.38)"/><circle class="cls-4" cx="160.13" cy="120.12" r="11.11" transform="translate(-11.06 16.36) rotate(-5.65)"/><circle class="cls-5" cx="160.13" cy="120.12" r="6.36" transform="translate(-11.06 16.36) rotate(-5.65)"/><circle class="cls-4" cx="28.59" cy="120.12" r="11.11"/><circle class="cls-11" cx="28.59" cy="120.12" r="5.61"/><circle class="cls-5" cx="28.59" cy="120.12" r="5.61"/><path class="cls-12" d="M32.33,115.94a5.68,5.68,0,0,1,.49,2.3,5.61,5.61,0,0,1-9.34,4.18,5.61,5.61,0,1,0,8.85-6.48Z"/><circle class="cls-6" cx="28.59" cy="120.12" r="1.74"/><circle class="cls-6" cx="25.64" cy="123.1" r="0.67"/><circle class="cls-6" cx="24.85" cy="118.11" r="0.67"/><circle class="cls-6" cx="32.25" cy="118.11" r="0.67"/><circle class="cls-6" cx="31.69" cy="123.1" r="0.67"/><circle class="cls-6" cx="28.59" cy="115.84" r="0.67"/><circle class="cls-11" cx="117.41" cy="120.12" r="5.61"/><circle class="cls-5" cx="117.41" cy="120.12" r="5.61"/><circle class="cls-6" cx="117.6" cy="120.3" r="1.65"/><circle class="cls-6" cx="114.78" cy="123.14" r="0.64"/><circle class="cls-6" cx="113.67" cy="118.11" r="0.67"/><circle class="cls-10" cx="121.07" cy="118.11" r="0.67"/><circle class="cls-6" cx="120.54" cy="123.14" r="0.64"/><circle class="cls-6" cx="160.13" cy="120.97" r="1.65"/><circle class="cls-6" cx="157.32" cy="123.81" r="0.64"/><circle class="cls-6" cx="156.2" cy="118.78" r="0.67"/><circle class="cls-6" cx="163.08" cy="123.81" r="0.64"/><circle class="cls-10" cx="117.41" cy="115.84" r="0.67"/><path class="cls-13" d="M28.47,60.14s6-9.1,13-9.17l-.62,9.84Z"/><path class="cls-14" d="M64,63.61v38.07H15.74l4-32.59a10.57,10.57,0,0,1,10.49-9.28H62.39C62.85,61,63.38,62.29,64,63.61Z"/><path class="cls-13" d="M35.94,81.76H22.41L24.2,68.89a5.36,5.36,0,0,1,5.31-4.62h6.85Z"/><path class="cls-15" d="M34.94,80.79H26a2.23,2.23,0,0,1-2.21-2.52L25,69.37a4.61,4.61,0,0,1,4.49-4.1h5.79Z"/><path class="cls-16" d="M129.39,108.91v-.14l0-.54-.08-1-.1-1.14-.08-.93,0,0h0l-.07-.79-.06-.75,0-.15-4.61-55.25L124.13,46H41l-.87,13.83-2.65,41.87-.62,9.81H129.6ZM125,97.55c-15.77,1.18-27.84-1.92-37-7a53,53,0,0,1-13.69-11A62.44,62.44,0,0,1,64,63.61c-.61-1.32-1.14-2.59-1.6-3.8A60.5,60.5,0,0,1,59.14,48.5a76.61,76.61,0,0,0,15.14,26A66.86,66.86,0,0,0,88,86.23c9.37,6,21.46,10.44,37.05,11.3Z"/><polygon class="cls-16" points="129.07 105.16 129.07 105.18 129.06 105.16 129.07 105.16"/><path class="cls-17" d="M125,97.55c-15.77,1.18-27.84-1.92-37-7a53,53,0,0,1-13.69-11A62.44,62.44,0,0,1,64,63.61c-.61-1.32-1.14-2.59-1.6-3.8A60.5,60.5,0,0,1,59.14,48.5a76.61,76.61,0,0,0,15.14,26A66.86,66.86,0,0,0,88,86.23c9.37,6,21.46,10.44,37.05,11.3l-4.11-49.07H44l-.72,11.35-2.64,41.87L40.22,109H126Z"/><path class="cls-16" d="M45.18,101.68H15.74c-2.6.17-2.85,1.45-2.85,1.45l-2.51,12.18a.81.81,0,0,0,.85.75h7.4a1.16,1.16,0,0,0,1-.77,12.24,12.24,0,0,1,1.9-1.91,12,12,0,0,1,7.06-2.09,13.75,13.75,0,0,1,9.12,3h7.47c.9,0,1.63-.47,1.63-1V102.72C46.81,102.15,46.08,101.68,45.18,101.68Z"/><path class="cls-18" d="M132.59,125.58h-9.33a8.67,8.67,0,0,0-1.17-3c-2.82-4.53-9.42-5.91-13.18-6.33-1.64-.18-2.75-.19-2.75-.19h16a11.79,11.79,0,0,1,8.31,5A13.66,13.66,0,0,1,132.59,125.58Z"/><path class="cls-18" d="M174.67,125.58h-9.33a8.67,8.67,0,0,0-1.4-3.36c-4.27-6.15-15.69-6.16-15.69-6.16h16a11.72,11.72,0,0,1,7.46,4A13.79,13.79,0,0,1,174.67,125.58Z"/><path class="cls-19" d="M130.51,121.11s-6.14-1.29-8.42,1.47c-2.82-4.53-9.42-5.91-13.18-6.33l-.22-.19H122.2A11.79,11.79,0,0,1,130.51,121.11Z"/><path class="cls-19" d="M171.75,120h0s-5.13-.12-7.81,2.18c-4.27-6.15-15.69-6.16-15.69-6.16h16A11.72,11.72,0,0,1,171.75,120Z"/><rect class="cls-20" x="37.66" y="111.49" width="139.31" height="6.35" rx="3.18"/><path class="cls-21" d="M126.18,109.28l-38.21,0-13.69,0H58.22l-18.37,0,.52-7.49L43.05,60l.71-11.49H59.14v0a60.5,60.5,0,0,0,3.25,11.31c.46,1.21,1,2.48,1.6,3.8A62.44,62.44,0,0,0,74.28,79.52,53,53,0,0,0,88,90.5c9.21,5.13,21.28,8.23,37.05,7v0h.11Z"/><path class="cls-22" d="M18.81,74.91h0a2.25,2.25,0,0,1,2.25,2.25v5.16a2.24,2.24,0,0,1-2.24,2.24h0a2.25,2.25,0,0,1-2.25-2.25V77.15A2.24,2.24,0,0,1,18.81,74.91Z"/><rect class="cls-15" x="17.06" y="75.45" width="3.65" height="8.64" rx="1.83"/><path class="cls-23" d="M18.81,75.08a.16.16,0,0,1-.15-.17V72.16a1.73,1.73,0,0,1,1.82-1.51c1.49,0,2.14,0,2.14,0a.15.15,0,0,1,.16.16.17.17,0,0,1-.14.19s-.66,0-2.17,0A1.38,1.38,0,0,0,19,72.2v2.71A.16.16,0,0,1,18.81,75.08Z"/><path class="cls-24" d="M34.68,86H32a.69.69,0,0,1-.69-.7h0a.69.69,0,0,1,.69-.69h2.73a.69.69,0,0,1,.7.69h0A.7.7,0,0,1,34.68,86Z"/><rect class="cls-8" x="143.94" y="99.57" width="11.92" height="11.92" transform="translate(299.8 211.06) rotate(180)"/><rect class="cls-9" x="155.36" y="99.57" width="5.46" height="11.92" transform="translate(316.19 211.06) rotate(180)"/><path class="cls-25" d="M232.05,90.62a1.4,1.4,0,0,0,.15-1.08s-7.52-2.79-8.25-3a77.1,77.1,0,0,1-9-4.12c-1.41-.82-2.49.06-3.77,1l-1.06.73a2.07,2.07,0,0,0,.53,3.56,94.14,94.14,0,0,0,11.9,3,59.39,59.39,0,0,0,8.66.91A3.33,3.33,0,0,0,232.05,90.62Z"/><path class="cls-26" d="M267.8,90.52l-1,.06a2.17,2.17,0,0,0-2.72,1.18s-.33.79.29.83.39-.07,1.26,0a2,2,0,0,0,2-.83l.55-.47Z"/><path class="cls-4" d="M267.06,91.25c-.22-.7-.16-.81-.16-.81s6.16-3.31,6.73-3.65,6.94-7.09,6.94-7.09l6.51,1.81S277,89.17,275.53,90c-2.39,1.36-7.92,2.12-7.92,2.12A2,2,0,0,1,267.06,91.25Z"/><path class="cls-9" d="M276,95.09,226.7,105.58,220.18,75l49.27-10.49Z"/><path class="cls-8" d="M264,97.64l-37.28,7.94L220.18,75,257.46,67Z"/><path class="cls-4" d="M237.45,127.18s1,1.1,3.3.5c0,0,1.86-.43,2.27.5,0,0-2.34,1.48-3.07,1.88a8.53,8.53,0,0,0-1.51,1.14.74.74,0,0,1-1.08-.09c-.13-.15-.27-.34-.43-.55-.44-.59-1.47-2.52-1.47-2.52Z"/><path class="cls-27" d="M238.33,126.61a2.89,2.89,0,0,1-3,1.72,59,59,0,0,1-7.29-7.27,16.77,16.77,0,0,1-2.26-3.54c-2-4.55-7.27-11.34-10.65-14.78l8.44-3s2.71,5.44,6.3,12.12C232.43,116.62,235.49,122.07,238.33,126.61Z"/><path class="cls-4" d="M229.84,111.81,228,121.06a16.77,16.77,0,0,1-2.26-3.54c-2-4.55-7.27-11.34-10.65-14.78l8.44-3S226.25,105.13,229.84,111.81Z"/><path class="cls-4" d="M222.94,128.41s-.09,1.68,2,1.91c0,0,1.23,0,1.24,1.1h-6a4.73,4.73,0,0,1-.21-1.36,10.69,10.69,0,0,1,.69-2.58Z"/><path class="cls-27" d="M220.78,99.69a33.87,33.87,0,0,1,6.14,11.57c1.3,4-2.38,14.23-3.1,17.77a11.15,11.15,0,0,1-4.15-.45,81.42,81.42,0,0,1,.86-12.93c.55-3.15-4.95-6.74-7.36-12.43-1.63-3.88.36-3.81,2.8-3.9Z"/><path class="cls-28" d="M216.44,81.26c-2.1,1.18-6.38.09-6.38.09a6,6,0,0,0,.95-5.19l1.64.84,1.77.89a15.85,15.85,0,0,1,.19,1.59c0,.26,0,.55,0,.87A5.39,5.39,0,0,1,216.44,81.26Z"/><path class="cls-29" d="M224.1,99.48c0,.36-.42.54-.51.56a40.21,40.21,0,0,1-5.32,1.28A16.83,16.83,0,0,1,213,101c-.24,0-.8-.2-.85-.43s-7-14.23-1.6-20.23a6.18,6.18,0,0,1,2.18.35,4,4,0,0,0,2.47-.21l.92.49c1.13.62,3.26,2.86,3.51,4.61.13.89.64,1.55.79,2.33.05.29.11.58.17.85.11.55.22,1.06.34,1.55.32,1.33.65,2.47,1,3.45s.69,1.92,1,2.65c.4.94.74,1.65,1,2.19A2.61,2.61,0,0,1,224.1,99.48Z"/><path class="cls-25" d="M223.87,98.56A27.45,27.45,0,0,1,210.61,85s7.93,2.61,9.91,3.38c.11.54.29,1.4.41,1.89.32,1.33.65,2.47,1,3.45s.69,1.92,1,2.65C223.32,97.31,223.66,98,223.87,98.56Z"/><path class="cls-28" d="M227.4,75.93l.18-.89a1.82,1.82,0,0,1,.36-2.84s.79-.51,1.06.07.07.38.47,1.19a1.63,1.63,0,0,1-.24,2.07l-.34.63Z"/><path class="cls-30" d="M214.61,79.48a4.4,4.4,0,0,1-3.39-1.59,15,15,0,0,0,1.43-.89l1.77.89A15.85,15.85,0,0,1,214.61,79.48Z"/><path class="cls-28" d="M215.49,77.36s-3.12,2.24-4.48.28-2.68-3-.75-4.51,2.84-1,3.45-.49S216.26,76.73,215.49,77.36Z"/><path class="cls-4" d="M214,70.87a5,5,0,0,0-.36-1.28s-.2.81-1.68.69-3.82.15-4.6,1.84a3.27,3.27,0,0,0-.14.33,3.93,3.93,0,0,1-.17-.94,2.81,2.81,0,0,0,0,1.64h0s0,0,0,.08a3.35,3.35,0,0,0-.6,1.13,1,1,0,0,1,.56-.49,3.12,3.12,0,0,0,1.46,3c1.36.56,1.35.13,2.73,1,0,0,.37-.45.11-.76s-1.2-.76-.67-1.2.73,0,.93-.25-.79-1.21.47-2S214.15,71.63,214,70.87Z"/><path class="cls-31" d="M299.82,126.49s1,1,.84,1.66-1.15,1.15-1.28,2-.64,1.31-1.1,1.31h-2.19s-.34-.6.48-.78,1.12-1.17,1.07-2.09a16.27,16.27,0,0,1,.08-2.14l1.74-.41Z"/><path class="cls-31" d="M286.75,131.41l-.13,0h-5.81c0-.21.22-.61.93-.73.91-.15,2.5-.68,2.86-1.85l0-.12c.28-1.25,2.32.39,2.32.39s0,.05,0,.13C287,129.73,287.14,131.22,286.75,131.41Z"/><path class="cls-29" d="M282,97.89s.31,3.88.67,8.54c.5,6.33,1.1,14.11,1.16,15.58.1,2.56.51,6.65.51,6.65a3.21,3.21,0,0,0,2.91.56,66.29,66.29,0,0,0,2.23-12l0-.3c.46-6.29,1.18-19.54,1.18-19.54Z"/><path class="cls-25" d="M282,97.89s.31,3.88.67,8.54l6.81,10.77,0-.3c.46-6.29,1.18-19.54,1.18-19.54Z"/><path class="cls-29" d="M283.4,98.36s5.6,14,9.28,20.63,4.83,8.44,4.83,8.44,2.11-.84,2.31-1.42c0,0-1.41-12.73-3.88-15.84-1.39-1.75-3-7-3.11-8.86s-.49-5.49-.49-5.49Z"/><path class="cls-26" d="M284,75.71s-2.8,3.69-5.08,3.92a6.17,6.17,0,0,1,.93-2.18c-.19-.29-.35-.55-.49-.79a13.17,13.17,0,0,1-.67-1.26l1-1.92.69-1.3a6.64,6.64,0,0,0,.65,1.25A5.47,5.47,0,0,0,284,75.71Z"/><path class="cls-32" d="M281,73.43a4.25,4.25,0,0,1-1.69,3.23,13.17,13.17,0,0,1-.67-1.26l1-1.92A4.32,4.32,0,0,1,281,73.43Z"/><path class="cls-26" d="M278,75.62s3.56-.87,3-3.08-.51-3.81-2.8-3.35-2.52,1.42-2.51,2.21S277.09,75.79,278,75.62Z"/><path class="cls-27" d="M292.9,97.71c-1.63,1.78-12.18,3.05-11.88,1.71a15.07,15.07,0,0,0,.35-2.68c0-.3,0-.61,0-.94a21.82,21.82,0,0,0-1.36-7l-.24-.65a21.09,21.09,0,0,1-1-3.36,9.93,9.93,0,0,1,.07-5.37l.69-2A4.59,4.59,0,0,0,282.47,75s7.1,2.27,9.89,12.51C292.36,87.46,294.31,96.16,292.9,97.71Z"/><path class="cls-4" d="M281.37,96.74c0-.3,0-.61,0-.94a21.82,21.82,0,0,0-1.36-7,9.66,9.66,0,0,1,1.34-3c1.74-2,2.63-2.21,2.63-2.21S285,93,281.37,96.74Z"/><path class="cls-4" d="M282,68.71s.11-.08.28-.11a.65.65,0,0,0-.34-.06.9.9,0,0,0-.67-.73.52.52,0,0,1,.29.36c-.54-.46-1.62-.71-4.49-.16-3.78.72-2.25,3.07-1.73,3.31s1.68-.71,2.61-.74,1.25,1.31,1.59,1.46.17-.16.57-.4.52.46.45.94.57,1,.57,1l.52-.71a6.75,6.75,0,0,0,.44-4Z"/><path class="cls-26" d="M271.59,94.61a12.87,12.87,0,0,0-1.55.16,4.24,4.24,0,0,0-1.14.86c0,.09.08.14.25.1s.71-.26.69-.18-1.53.83-1.46,1.16,1.11.69,1.87.52a9.22,9.22,0,0,0,2.38-1.41C272.73,95.74,271.59,94.61,271.59,94.61Z"/><path class="cls-27" d="M271.67,95.26c-.47-.61-.21-.94-.21-.94s5.71-5.55,6.15-6.1,1.86-8.65,1.86-8.65a4.68,4.68,0,0,1,2.6-2.49c1.56-.48,2.36-1.12,3.18-.28a3.41,3.41,0,0,1,.64,3.78c-1.31,2.86-3.95,8.53-4.79,9.54-1.63,1.95-6.81,5.08-8.16,5.88a.53.53,0,0,1-.62-.06A6.13,6.13,0,0,1,271.67,95.26Z"/><path class="cls-29" d="M229.44,75.66a1.59,1.59,0,0,0-.95-.6l-1.25-.28s-4.28,7.11-4.63,7.82c-.08.16-.21.41-.41.76a.66.66,0,0,1-.75.31A32.38,32.38,0,0,1,216.63,82a4.52,4.52,0,0,0-4.64.5l-1.1.83a2,2,0,0,0,.68,3.54,90.07,90.07,0,0,0,11.91,2c1.07.12,2.38-2.54,3-4h0A79.6,79.6,0,0,0,229.44,75.66Z"/><path class="cls-4" d="M181.88,131.17h-6.2a1.07,1.07,0,0,1,1-.72c1-.15,2.62-.71,3-1.93l0-.12c.29-1.31,2.43.4,2.43.4s0,0,0,.14C182.15,129.42,182.28,131,181.88,131.17Z"/><path class="cls-27" d="M176.89,96.16s.33,4,.71,8.92c.52,6.61,1.14,14.73,1.2,16.27.11,2.68.54,7,.54,7a3.33,3.33,0,0,0,3,.59,70,70,0,0,0,2.33-12.56c0-.11,0-.21,0-.32.48-6.57,1.23-20.41,1.23-20.41Z"/><path class="cls-4" d="M176.89,96.16s.33,4,.71,8.92l7.11,11.25c0-.11,0-.21,0-.32.48-6.57,1.23-20.41,1.23-20.41Z"/><path class="cls-27" d="M178.38,96.64s5.85,14.67,9.69,21.56,5.05,8.82,5.05,8.82,2.21-.88,2.41-1.49c0,0-1.47-13.3-4.05-16.55-1.46-1.83-3.17-7.33-3.25-9.25s-.52-5.73-.52-5.73Z"/><path class="cls-26" d="M186.07,74s-4,1.94-6.24,1.22A5.41,5.41,0,0,1,181.38,74c-.08-.46-.14-.86-.18-1.21a12.11,12.11,0,0,1-.09-1.23l1.52-1.22,1.45-1.17A6,6,0,0,0,186.07,74Z"/><path class="cls-29" d="M188.16,94.75c0,.24-.51.53-.74.63a15.91,15.91,0,0,1-5.06,1.46,37.91,37.91,0,0,1-5.48-.25.36.36,0,0,1-.24-.09c-.06,0-.1-2.64-.06-5.89,0-.14,0-.27,0-.4v0c0-1.28.06-2.61.12-3.94a44.62,44.62,0,0,1,.74-7.32,7.9,7.9,0,0,1,2.48-4l.79-.71a3.72,3.72,0,0,0,2.45-.29c.92-.45,1.92-.95,2.07-.83,1.2.88,2,2.9,2.42,5.44A29.2,29.2,0,0,1,188,83.4c0,.63,0,1.28-.05,1.92a62.19,62.19,0,0,0,.12,8.24C188.12,94.07,188.15,94.47,188.16,94.75Z"/><path class="cls-25" d="M188.09,93.56c-19.18,0-3.54-14.29-3.54-14.29l3.11-.7A29.2,29.2,0,0,1,188,83.4c0,.63,0,1.28-.05,1.92A62.19,62.19,0,0,0,188.09,93.56Z"/><rect class="cls-8" x="164.5" y="81.55" width="11.92" height="11.92" transform="translate(340.92 175.02) rotate(180)"/><rect class="cls-9" x="175.92" y="81.55" width="5.46" height="11.92" transform="translate(357.31 175.02) rotate(180)"/><path class="cls-33" d="M184.11,70.42a5.24,5.24,0,0,1-2.91,2.37,12.11,12.11,0,0,1-.09-1.23l1.52-1.22Z"/><path class="cls-26" d="M180.41,71.5s3.78.63,4.13-1.73,1.08-3.86-1.32-4.36-3,.33-3.31,1.08S179.44,71.28,180.41,71.5Z"/><path class="cls-4" d="M184.51,69.93A3.9,3.9,0,0,0,181,66.27c-2.36-.35-2.16-2-1.89-2.37a26.77,26.77,0,0,1,4.87.49C186.75,65.09,184.92,69.47,184.51,69.93Z"/><path class="cls-4" d="M195.53,126l-.19-.24L193.26,127a10.59,10.59,0,0,0,0,1.26,3.77,3.77,0,0,1,0,.82c-.05.2-.27,1.08-.91,1.31s-.79.83.46.82h.65a1.74,1.74,0,0,0,1.65-1.28,3,3,0,0,1,.51-1,3.76,3.76,0,0,0,.84-1.14C196.62,127,195.53,126,195.53,126Z"/><path class="cls-34" d="M125,97.53v0c-15.77,1.18-27.84-1.92-37-7a53,53,0,0,1-13.69-11A62.44,62.44,0,0,1,64,63.61c-.61-1.32-1.14-2.59-1.6-3.8A60.5,60.5,0,0,1,59.14,48.5a76.61,76.61,0,0,0,15.14,26A66.86,66.86,0,0,0,88,86.23C97.34,92.24,109.43,96.67,125,97.53Z"/><path class="cls-35" d="M125.13,97.54H125"/><path class="cls-35" d="M59.15,48.5v0"/><polygon class="cls-36" points="88.34 66.5 88.34 66.71 87.36 66.71 87.36 67.28 88.22 67.28 88.22 67.49 87.36 67.49 87.36 68.32 87.13 68.32 87.13 66.5 88.34 66.5"/><path class="cls-36" d="M89.12,67v.22l-.18,0a.42.42,0,0,0-.22.42v.68h-.23V67h.21v.21c.1-.16.22-.26.31-.26Z"/><path class="cls-36" d="M89.89,68.16a.35.35,0,0,0,.35-.27h.21a.5.5,0,0,1-.12.27.51.51,0,0,1-.44.2.56.56,0,0,1-.45-.22.76.76,0,0,1-.14-.5.69.69,0,0,1,.16-.5.52.52,0,0,1,.41-.2h.06a.52.52,0,0,1,.38.19.82.82,0,0,1,.16.58h-.94a.43.43,0,0,0,.08.29A.3.3,0,0,0,89.89,68.16Zm-.25-.91a.66.66,0,0,0-.11.32h.73a.64.64,0,0,0-.1-.32.33.33,0,0,0-.23-.11.38.38,0,0,0-.29.11"/><rect class="cls-36" x="90.76" y="66.5" width="0.21" height="0.25"/><rect class="cls-36" x="90.76" y="67.01" width="0.21" height="1.31"/><path class="cls-36" d="M92.19,67h.2v1.08c0,.3,0,.62-.3.71l-.22.06a.68.68,0,0,1-.28,0,.37.37,0,0,1-.27-.36h.21s0,.11.14.17l.15,0,.19,0a.34.34,0,0,0,.16-.21,1.32,1.32,0,0,0,0-.28.56.56,0,0,1-.43.22.45.45,0,0,1-.27-.12.56.56,0,0,1-.23-.5.9.9,0,0,1,.14-.58.6.6,0,0,1,.42-.22.51.51,0,0,1,.37.2Zm-.12,1.06a.73.73,0,0,0,0-.78.33.33,0,0,0-.23-.09.3.3,0,0,0-.31.19.7.7,0,0,0-.06.29.54.54,0,0,0,.08.35.34.34,0,0,0,.25.14h0a.37.37,0,0,0,.23-.1"/><path class="cls-36" d="M93.61,67a.32.32,0,0,1,.2.3v1h-.2v-.89c0-.18-.08-.21-.12-.23a.49.49,0,0,0-.18,0h0l-.22.12a.23.23,0,0,0-.07.19v.85h-.19V66.5H93v.66a.61.61,0,0,1,.23-.15l.17-.05Z"/><path class="cls-36" d="M94.41,66.66V67h.21v.19h-.21v.91s0,.07.1.07l.11,0v.2a.9.9,0,0,1-.22,0,.21.21,0,0,1-.2-.19v-1H94V67h.17v-.35Z"/><path class="cls-36" d="M95.87,67.14a.31.31,0,0,1,0,.62h0a.31.31,0,0,1,0-.62Z"/><path class="cls-36" d="M98,66.46a.75.75,0,0,1,.5.2.81.81,0,0,1,.23.4v0h-.23l-.12-.21a.45.45,0,0,0-.36-.18.51.51,0,0,0-.39.18.85.85,0,0,0-.17.56.91.91,0,0,0,.17.56.53.53,0,0,0,.39.18.49.49,0,0,0,.36-.18.67.67,0,0,0,.16-.34h.23a1.15,1.15,0,0,1-.27.54.78.78,0,0,1-1,0,1.15,1.15,0,0,1-.29-.78,1,1,0,0,1,.29-.77A.75.75,0,0,1,98,66.46Z"/><path class="cls-36" d="M100.06,67v1.31h-.19v-.13l-.15.13a.64.64,0,0,1-.28.06.43.43,0,0,1-.2,0,.38.38,0,0,1-.22-.29V67h.22v.93a.2.2,0,0,0,.1.2l.1,0,.17,0a.42.42,0,0,0,.25-.44V67Z"/><path class="cls-36" d="M100.87,67c.43,0,.48.25.48.42h-.21c0-.05,0-.22-.31-.22a.25.25,0,0,0-.25.13l.06.18a1.3,1.3,0,0,0,.31.09.76.76,0,0,1,.3.1.31.31,0,0,1,.14.33.42.42,0,0,1-.23.31.39.39,0,0,1-.23.06l-.25,0a.38.38,0,0,1-.33-.39v0h.2c0,.1,0,.19.23.26H101l.17-.06.08-.15a.16.16,0,0,0-.14-.17,3,3,0,0,1-.48-.14c-.1,0-.19-.13-.19-.33A.43.43,0,0,1,100.87,67Z"/><path class="cls-36" d="M102,66.66V67h.2v.19H102v.91s0,.07.09.07l.11,0v.2a.9.9,0,0,1-.22,0,.21.21,0,0,1-.2-.19v-1h-.17V67h.17v-.35Z"/><path class="cls-36" d="M103.41,67.23a1,1,0,0,1,.1.45.92.92,0,0,1-.1.44.53.53,0,0,1-.48.26.55.55,0,0,1-.49-.26.81.81,0,0,1-.09-.44,1,1,0,0,1,.09-.45.56.56,0,0,1,.49-.25A.53.53,0,0,1,103.41,67.23Zm-.15.74a1,1,0,0,0,0-.29.87.87,0,0,0,0-.28.35.35,0,0,0-.32-.2h0a.29.29,0,0,0-.28.21.88.88,0,0,0-.06.28,1.07,1.07,0,0,0,.06.29.32.32,0,0,0,.31.19.38.38,0,0,0,.33-.19"/><path class="cls-36" d="M104.43,67l.21.06.13.15L105,67l.19-.05a.39.39,0,0,1,.25.05.33.33,0,0,1,.17.29v1h-.21V67.4c0-.18-.11-.24-.25-.24a.28.28,0,0,0-.29.27v.89h-.21v-.95a.22.22,0,0,0-.25-.21.33.33,0,0,0-.31.31v.85h-.21V67H104v.18l.14-.15A.37.37,0,0,1,104.43,67Z"/><path class="cls-36" d="M106.35,67c.42,0,.48.25.48.42h-.21c0-.05,0-.22-.31-.22a.25.25,0,0,0-.25.13l.06.18a1.17,1.17,0,0,0,.31.09.76.76,0,0,1,.3.1.29.29,0,0,1,.13.33.4.4,0,0,1-.22.31.39.39,0,0,1-.23.06l-.25,0a.38.38,0,0,1-.33-.39v0H106c0,.1,0,.19.24.26h.17l.17-.06.08-.15a.16.16,0,0,0-.14-.17,3,3,0,0,1-.48-.14.32.32,0,0,1-.19-.33A.43.43,0,0,1,106.35,67Z"/><path class="cls-36" d="M108.18,67.14a.3.3,0,0,1,.3.31.3.3,0,0,1-.27.31h0a.31.31,0,0,1,0-.62Z"/><polygon class="cls-36" points="109.79 66.5 109.79 68.11 110.68 68.11 110.68 68.32 109.56 68.32 109.56 66.5 109.79 66.5"/><path class="cls-36" d="M111.9,67.23a.9.9,0,0,1,.1.45.82.82,0,0,1-.1.44.56.56,0,0,1-1,0,.82.82,0,0,1-.1-.44.9.9,0,0,1,.1-.45.52.52,0,0,1,.47-.25A.52.52,0,0,1,111.9,67.23Zm-.13.74a.79.79,0,0,0,.06-.29.67.67,0,0,0-.06-.28.32.32,0,0,0-.31-.2h0a.31.31,0,0,0-.29.21.87.87,0,0,0,0,.28,1,1,0,0,0,0,.29.34.34,0,0,0,.32.19.35.35,0,0,0,.32-.19"/><path class="cls-36" d="M113.17,67h.22v1.08c0,.3,0,.62-.31.71l-.21.06a.78.78,0,0,1-.3,0,.39.39,0,0,1-.26-.36h.21s0,.11.14.17l.15,0,.19,0c.11-.08.14-.12.16-.21a2.62,2.62,0,0,0,0-.28.53.53,0,0,1-.42.22.39.39,0,0,1-.26-.12.55.55,0,0,1-.24-.5,1,1,0,0,1,.14-.58.6.6,0,0,1,.42-.22.48.48,0,0,1,.36.2Zm-.11,1.06a.73.73,0,0,0,0-.78.33.33,0,0,0-.23-.09.3.3,0,0,0-.31.19.91.91,0,0,0-.06.29.6.6,0,0,0,.08.35.34.34,0,0,0,.25.14h0a.37.37,0,0,0,.23-.1"/><rect class="cls-36" x="113.63" y="66.5" width="0.21" height="0.25"/><rect class="cls-36" x="113.63" y="67.01" width="0.21" height="1.31"/><path class="cls-36" d="M114.65,67c.43,0,.49.25.49.42h-.22c0-.05,0-.22-.3-.22a.26.26,0,0,0-.26.13l.06.18a1.46,1.46,0,0,0,.31.09.81.81,0,0,1,.31.1.33.33,0,0,1,.13.33.47.47,0,0,1-.46.37l-.25,0a.39.39,0,0,1-.33-.39v0h.2c0,.1,0,.19.23.26h.17l.17-.06L115,68a.16.16,0,0,0-.13-.17,3.15,3.15,0,0,1-.49-.14c-.09,0-.18-.13-.18-.33A.42.42,0,0,1,114.65,67Z"/><path class="cls-36" d="M115.75,66.66V67H116v.19h-.21v.91s0,.07.09.07l.12,0v.2a.93.93,0,0,1-.23,0,.2.2,0,0,1-.19-.19v-1h-.17V67h.17v-.35Z"/><rect class="cls-36" x="116.19" y="66.5" width="0.21" height="0.25"/><rect class="cls-36" x="116.19" y="67.01" width="0.21" height="1.31"/><path class="cls-36" d="M117.26,67a.65.65,0,0,1,.37.12.49.49,0,0,1,.15.37h-.2c0-.14,0-.22-.14-.25l-.18,0a.4.4,0,0,0-.25.13.76.76,0,0,0-.08.33.79.79,0,0,0,0,.35.37.37,0,0,0,.32.2.28.28,0,0,0,.25-.14l.07-.18v0h.23a1.29,1.29,0,0,1-.08.27.59.59,0,0,1-.5.26.5.5,0,0,1-.46-.27,1,1,0,0,1-.1-.44.89.89,0,0,1,.19-.51A.51.51,0,0,1,117.26,67Z"/><path class="cls-36" d="M118.48,67c.42,0,.48.25.48.42h-.21c0-.05,0-.22-.31-.22a.24.24,0,0,0-.25.13l.06.18a1.2,1.2,0,0,0,.3.09.86.86,0,0,1,.32.1A.34.34,0,0,1,119,68a.47.47,0,0,1-.23.31.41.41,0,0,1-.23.06l-.25,0A.38.38,0,0,1,118,68v0h.19c0,.1,0,.19.23.26h.17l.18-.06.07-.15a.15.15,0,0,0-.13-.17,2.74,2.74,0,0,1-.48-.14.32.32,0,0,1-.19-.33A.43.43,0,0,1,118.48,67Z"/><polygon class="cls-36" points="119.02 60.74 119.02 61.13 116.25 63.93 119.02 63.93 119.02 64.67 114.83 64.67 114.83 64.24 117.56 61.44 115.1 61.44 115.1 60.74 119.02 60.74"/><path class="cls-36" d="M111.48,60.74h.89l2.25,3.93h-1l-.46-.87h-2.48l-.47.87h-.92ZM111,63.08h1.72l-.85-1.61L111,63.08"/><path class="cls-36" d="M106.08,63.12l1.8-2.38h.74v3.93h-.85V62.06l0-.25c-.07.1-.1.19-.14.25l-.1.15-1.46,2h-.18l-1.47-2-.14-.21-.09-.19v2.86h-.72V60.74h.72Z"/><polygon class="cls-36" points="99.76 60.74 99.76 63.93 102.69 63.93 102.69 64.67 98.85 64.67 98.85 60.74 99.76 60.74"/><path class="cls-36" d="M96.49,60.73a1.05,1.05,0,0,1,.77.19,1,1,0,0,1,.19.73v2.06a.77.77,0,0,1-1,.94H93.61a1,1,0,0,1-.77-.2,1,1,0,0,1-.2-.74V61.65a1,1,0,0,1,.2-.73,1.05,1.05,0,0,1,.77-.19Zm.05,3.18V61.42h-3v2.49h3"/><path class="cls-36" d="M87.33,60.92a1.08,1.08,0,0,1,.77-.19h3.25v.69H87.93v.85h2.45a1.14,1.14,0,0,1,.77.19,1,1,0,0,1,.2.73v.55a1.06,1.06,0,0,1-.2.73,1.08,1.08,0,0,1-.77.2H87.13v-.74h3.4V63H88.1a1.08,1.08,0,0,1-.77-.19,1.05,1.05,0,0,1-.18-.74v-.44A1.05,1.05,0,0,1,87.33,60.92Z"/><path class="cls-36" d="M77.83,60.74h5.33v1.84H76.9l2.67,2-1.54,0a1.8,1.8,0,0,1-1-.23,1.73,1.73,0,0,1-.83-.89,1.94,1.94,0,0,1,.36-2.09A2,2,0,0,1,77.83,60.74Z"/><path class="cls-36" d="M76,66.49h6.26l-2.65-2h1.54a1.92,1.92,0,0,1,1,.22,1.84,1.84,0,0,1,.82.89,1.94,1.94,0,0,1-.36,2.09,2,2,0,0,1-1.31.6H76Z"/><path class="cls-36" d="M83.38,59.43h1.3v8.85a1.3,1.3,0,0,1-1.3,1.31H74.52V60.74a1.3,1.3,0,0,1,1.3-1.31Zm1,8.87V59.72H75.81a1,1,0,0,0-1,1v8.58h8.59a1,1,0,0,0,1-1"/><path class="cls-37" d="M172.29,85.43h.63v4.26a.63.63,0,0,1-.63.63H168V86.06a.63.63,0,0,1,.63-.63Zm0,.14h-3.67a.49.49,0,0,0-.49.49v4.13h4.16a.49.49,0,0,0,.49-.49V85.57Zm-1.85,2.32h.75a.94.94,0,0,1,.5.11.81.81,0,0,1,.4.43.91.91,0,0,1-.18,1,.89.89,0,0,1-.65.29h-2.57v-.88h3l-1.29-.94h-.74a1,1,0,0,1-.9-.54.93.93,0,0,1,.17-1,.91.91,0,0,1,.65-.29h2.56V87h-3Z"/><path class="cls-26" d="M174.63,87.68l-.71-.22a1.5,1.5,0,0,0-2.18-.91s-.68.36-.38.79.25.2.66.82a1.33,1.33,0,0,0,1.57.67l.59,0Z"/><path class="cls-29" d="M186.07,74a14.93,14.93,0,0,1-.28,14.89c-1.44,2.49-12.35.12-12.35.12s-.43-.77.71-1.58c0,0,7.26-1.23,8.13-1.43s.26-7.25,1.13-9.29A5.16,5.16,0,0,1,186.07,74Z"/><path class="cls-37" d="M246.24,79.43l1.55-.32L250,89.54a1.58,1.58,0,0,1-1.23,1.87l-9,1.88-1.53.32-2.18-10.43a1.58,1.58,0,0,1,1.22-1.87Zm.07.35-9,1.87a1.25,1.25,0,0,0-1,1.46l2.12,10.11,1.21-.25,9-1.88a1.24,1.24,0,0,0,.95-1.46l-2.11-10.11ZM243,86.39,244.8,86a2.35,2.35,0,0,1,1.29,0,2.17,2.17,0,0,1,1.2.84,2.32,2.32,0,0,1,.08,2.55,2.27,2.27,0,0,1-1.44,1l-6.29,1.32-.45-2.17L246.61,88,243,86.39l-1.82.4a2.23,2.23,0,0,1-1.28,0,2.13,2.13,0,0,1-1.2-.84,2.31,2.31,0,0,1-.09-2.55,2.27,2.27,0,0,1,1.45-1L246.31,81l.45,2.16-7.42,1.55Z"/><path class="cls-37" d="M152.41,102.6h.87v5.86a.87.87,0,0,1-.87.87h-5.9v-5.86a.88.88,0,0,1,.87-.87Zm0,.19h-5a.69.69,0,0,0-.68.68v5.68h5.72a.68.68,0,0,0,.68-.68v-5.68ZM149.88,106h1a1.23,1.23,0,0,1,.69.15,1.14,1.14,0,0,1,.55.59,1.27,1.27,0,0,1-.24,1.38,1.24,1.24,0,0,1-.89.4h-3.54v-1.22h4.18L149.88,106h-1a1.25,1.25,0,0,1-.7-.15,1.22,1.22,0,0,1-.55-.59,1.29,1.29,0,0,1,.25-1.38,1.24,1.24,0,0,1,.89-.4h3.52v1.22H148.1Z"/><path class="cls-37" d="M137.6,90.6h.71v4.74a.7.7,0,0,1-.71.7h-4.77V91.3a.7.7,0,0,1,.71-.7Zm0,.16h-4.07a.55.55,0,0,0-.55.54v4.6h4.62a.55.55,0,0,0,.55-.55V90.76Zm-2,2.57h.82a1,1,0,0,1,.56.13.94.94,0,0,1,.45.47,1,1,0,0,1-.2,1.12,1,1,0,0,1-.72.32h-2.86v-1H137l-1.42-1h-.83a1,1,0,0,1-.56-.12,1,1,0,0,1-.45-.48,1,1,0,0,1,.2-1.11,1,1,0,0,1,.72-.33h2.85v1h-3.37Z"/><path class="cls-37" d="M129.59,104.17a1,1,0,0,0-.58.2l.07.79h3.35v-1Zm2.3,2.15a1,1,0,0,0-.56-.13h-.83l1.43,1h-2.67l.08,1h2.07a1,1,0,0,0,.72-.32,1,1,0,0,0,.2-1.12A1,1,0,0,0,131.89,106.32Zm-2.73-.21a1,1,0,0,0,.51.1h.83l-1.42-1Zm.43-1.94a1,1,0,0,0-.58.2l.07.79h3.35v-1Zm2.3,2.15a1,1,0,0,0-.56-.13h-.83l1.43,1h-2.67l.08,1h2.07a1,1,0,0,0,.72-.32,1,1,0,0,0,.2-1.12A1,1,0,0,0,131.89,106.32Zm-2.73-.21a1,1,0,0,0,.51.1h.83l-1.42-1Zm-.23-2.64,0,.15h4.15v4.6a.55.55,0,0,1-.55.55h-3.17v.14h3.16a.71.71,0,0,0,.7-.7v-4.74Zm3.5,1.69v-1h-2.84a1,1,0,0,0-.58.2l.07.79Zm-.3,2.75a1,1,0,0,0,.2-1.12,1,1,0,0,0-.44-.47,1,1,0,0,0-.56-.13h-.83l1.43,1h-2.67l.08,1h2.07A1,1,0,0,0,132.13,107.91Zm-3-1.8a1,1,0,0,0,.51.1h.83l-1.42-1Z"/><text class="cls-38" transform="translate(45.32 104.99)">www.solmaz.com</text></svg>