<svg width="131" height="30" viewBox="0 0 131 30" fill="none" xmlns="http://www.w3.org/2000/svg">
<path d="M127.944 21.2167H128.51V24.1255L130.038 22.6426H130.774L129.529 23.8973L131 26.2357H130.321L129.133 24.2966L128.567 24.8669V26.2357H128.001V21.2167H127.944ZM71.6397 15.4563V3.87832H74.2994V13.289H82.9572V15.4563H71.6397ZM56.0216 13.2319H64.8493V5.87452H56.0216V13.2319ZM53.362 6.55894C53.362 5.53232 53.5318 4.79087 53.9279 4.39163C54.324 3.99239 55.0596 3.82129 56.1914 3.82129H64.6795C65.8112 3.82129 66.5469 3.99239 66.943 4.39163C67.3391 4.79087 67.5089 5.47529 67.5089 6.55894V12.6616C67.5089 13.7453 67.3391 14.4297 66.943 14.8289C66.5469 15.2281 65.8112 15.3992 64.6795 15.3992H56.1914C55.0596 15.3992 54.324 15.2281 53.9279 14.8289C53.5318 14.4297 53.362 13.7453 53.362 12.6616V6.55894ZM49.514 5.87452H39.4981V8.38403H46.6847C47.8164 8.38403 48.5521 8.55514 48.9482 8.95438C49.3443 9.35362 49.5706 10.038 49.5706 11.1217V12.7186C49.5706 13.7452 49.3443 14.4867 48.9482 14.8859C48.5521 15.2852 47.8164 15.4563 46.6847 15.4563H37.1214V13.289H47.1374V10.6084H40.0073C38.8756 10.6084 38.14 10.4373 37.7438 10.038C37.3477 9.63878 37.178 8.95437 37.178 7.87072V6.55894C37.178 5.53232 37.3477 4.79087 37.7438 4.39163C38.14 3.99239 38.8756 3.82129 40.0073 3.82129H49.5706V5.87452H49.514ZM118.664 15.4563V14.2015L126.699 5.93156H119.456V3.87832H131V5.01901L122.851 13.289H131V15.4563H118.664ZM107.46 10.7795H112.496L110.006 6.04563L107.46 10.7795ZM102.31 15.4563L108.818 3.87832H111.421L118.041 15.4563H115.042L113.684 12.8897H106.384L105.026 15.4563H102.31ZM85.3339 15.4563V3.87832H87.4842L92.9166 10.8935L98.2359 3.87832H100.386V15.4563H97.8963V8.26996C97.8963 8.15589 97.8963 7.92776 97.8963 7.75665L97.9529 7.01521C97.7832 7.30038 97.67 7.58555 97.5568 7.75665C97.4436 7.92776 97.3305 8.09886 97.2739 8.21293L92.9732 14.0304H92.4639L88.1067 8.21293C87.9369 7.98479 87.8238 7.81369 87.7106 7.58555C87.5974 7.41445 87.4842 7.18631 87.4277 7.01521L87.4842 7.69962V8.26996V15.4563H85.3339ZM26.0868 0H29.9348V26.1217C29.9348 28.2319 28.2372 30 26.0868 30H3.79136H0V3.87832C0 1.76806 1.69762 0 3.84795 0H26.0868ZM26.0868 0.855513H3.79136C2.15032 0.855513 0.792224 2.22433 0.792224 3.87832V29.2015H3.79136H26.0868C27.7279 29.2015 29.086 27.8327 29.086 26.1787V0.855513H26.0868ZM14.8825 15.057C14.8825 15.057 18.2778 15 19.4095 15C20.6544 15 21.4467 15.1141 22.4652 15.6844C23.4838 16.2547 24.3326 16.9962 24.8985 18.308C25.4644 19.5627 25.8605 22.5285 23.8233 24.4677C21.7862 26.4068 19.8622 26.2357 19.8622 26.2357H4.24406V20.8175H22.6916L14.8825 15.057L10.3555 15.1141C9.11058 15.1141 8.31836 15 7.29979 14.4297C6.28121 13.8593 5.4324 13.1179 4.86652 11.8061C4.30065 10.5513 3.90454 7.58555 5.94168 5.64639C7.97883 3.70723 9.90281 3.87832 9.90281 3.87832H25.4644V9.29658H7.01685L14.8825 15.057ZM38.7624 26.2357V21.7871H37.1214V21.2167H41.0259V21.7871H39.3849V26.2357H38.7624ZM43.7987 23.27V25.7224C43.7987 25.8365 44.0251 25.9506 44.1948 25.9506V26.4068L43.7421 26.4639C43.4592 26.4068 43.2894 26.1787 43.2328 25.9506C42.9499 26.1787 42.6104 26.4639 42.1011 26.4639C41.3089 26.5209 40.7996 26.0646 40.8562 25.3232C40.9127 24.6958 41.2523 24.4677 41.5918 24.3536C42.2143 24.1255 42.5538 24.1825 42.8933 24.1255C42.9499 24.1255 43.1762 24.0684 43.1762 23.8403V23.4411C43.1197 23.2129 42.6104 23.0418 42.2143 23.0418C41.5918 23.0989 41.5352 23.5551 41.5352 23.7262H40.9693V23.384C41.0259 23.1559 41.1957 22.8707 41.5918 22.6996C41.7616 22.5856 41.9879 22.5855 42.2143 22.5285C42.4406 22.5285 42.7235 22.5285 42.9499 22.5856C43.4592 22.6996 43.7987 22.9278 43.7987 23.27ZM43.2328 25.2091V24.4677C42.7801 24.6388 42.1011 24.6388 41.8181 24.8099C41.705 24.8669 41.4786 25.038 41.4786 25.3232C41.4786 25.7795 41.8181 25.9506 42.1011 25.9506C42.8367 25.9506 43.2328 25.3232 43.2328 25.2091ZM45.1002 27.6616L45.27 27.3764C45.4963 27.4905 45.6661 27.6046 45.8924 27.6046C46.0622 27.6046 46.1754 27.5475 46.2886 27.3764C46.3451 27.3194 46.2886 27.1483 46.1754 27.0913C46.0056 27.0342 45.949 27.0342 45.8924 27.0913L46.0056 26.4068C45.8359 26.4068 45.7227 26.4068 45.6095 26.3498C44.8173 26.1787 44.7041 25.5513 44.7041 25.2662V25.1521H45.27C45.3266 25.4373 45.3266 25.6654 45.8924 25.8365C45.949 25.8365 46.0622 25.8935 46.1188 25.8935C46.232 25.8935 46.2886 25.8935 46.4017 25.8935C46.5715 25.8935 46.7413 25.8365 46.8544 25.7224C46.9676 25.6084 47.0808 25.4943 47.0808 25.2662C47.0808 25.0951 46.9676 24.924 46.6847 24.8099C46.232 24.6958 45.6661 24.5818 45.3266 24.4677C45.0436 24.3536 44.8173 24.1255 44.8173 23.6122C44.8173 22.9278 45.4397 22.5285 46.1188 22.5285C47.3071 22.5285 47.4769 23.2129 47.4769 23.6692H46.911C46.911 23.5551 46.9676 23.0989 46.0622 23.0989C45.6661 23.0989 45.4397 23.27 45.3832 23.4981C45.3266 23.6692 45.3832 23.8973 45.5529 24.0114C45.7793 24.1255 46.0622 24.1825 46.4017 24.2966C46.6847 24.3536 46.9676 24.4106 47.2505 24.5817C47.5901 24.7529 47.7032 25.1521 47.6467 25.4943C47.5901 25.8365 47.3637 26.1787 47.0242 26.3498C46.8544 26.4068 46.6281 26.4639 46.4017 26.5209L46.2886 26.9202H46.5149C46.6281 26.9202 46.7413 26.9772 46.7978 27.0342C46.8544 27.0913 46.9676 27.2624 46.911 27.4335C46.8544 27.8327 46.5715 27.9468 46.4017 27.9468C45.8359 27.8897 45.7227 27.8897 45.1002 27.6616ZM48.5521 26.2357V22.6426H49.1179V26.2357H48.5521ZM50.3629 26.2357V22.6426H50.9287V23.0989C51.0419 22.9848 51.1551 22.7567 51.3248 22.6996C51.4946 22.5856 51.721 22.5285 52.0039 22.5285C52.2302 22.5285 52.4 22.5285 52.6264 22.6426C52.7395 22.7567 52.8527 22.8137 53.0225 23.0418C53.1922 22.8707 53.3054 22.6996 53.5317 22.5856C53.7015 22.5285 53.9279 22.4715 54.041 22.4715C54.2674 22.4715 54.5503 22.4715 54.7201 22.5856C54.9464 22.6996 55.1728 23.0418 55.1728 23.384V26.2357H54.6069V23.6692C54.5503 23.2129 54.2674 23.0418 53.9279 23.0418C53.4186 23.0418 53.1922 23.4411 53.1356 23.7833V26.2357H52.5698V23.6122C52.5132 23.1559 52.1736 22.9848 51.8907 22.9848C51.438 22.9848 51.0985 23.384 51.0419 23.8403V26.1787H50.3629V26.2357ZM58.9076 23.27V25.7224C58.9076 25.8365 59.1339 25.9506 59.3037 25.9506V26.4068L58.851 26.4639C58.568 26.4068 58.3983 26.1787 58.3417 25.9506C58.0588 26.1787 57.7192 26.4639 57.2099 26.4639C56.4177 26.5209 55.9084 26.0646 55.965 25.3232C56.0216 24.6958 56.3611 24.4677 56.7006 24.3536C57.3231 24.1255 57.6626 24.1825 58.0022 24.1255C58.0588 24.1255 58.2851 24.0684 58.2851 23.8403V23.4411C58.2285 23.2129 57.7192 23.0418 57.3231 23.0418C56.7007 23.0989 56.6441 23.5551 56.6441 23.7262H56.0782V23.384C56.1348 23.1559 56.3045 22.8707 56.7006 22.6996C56.8704 22.5856 57.0968 22.5855 57.3231 22.5285C57.5495 22.5285 57.8324 22.5285 58.0588 22.5856C58.5115 22.6996 58.9076 22.9278 58.9076 23.27ZM58.2851 25.2091V24.4677C57.8324 24.6388 57.1534 24.6388 56.8704 24.8099C56.7572 24.8669 56.5309 25.038 56.5309 25.3232C56.5309 25.7795 56.8704 25.9506 57.1534 25.9506C57.9456 25.9506 58.2851 25.3232 58.2851 25.2091ZM62.2462 24.981H62.8121C62.8121 25.2662 62.6989 25.5513 62.6423 25.7224C62.3594 26.1787 61.7935 26.4068 61.2842 26.4068C60.775 26.4068 60.2657 26.1217 60.0393 25.6654C59.8696 25.3802 59.7564 24.924 59.813 24.4106C59.813 23.9544 59.9827 23.4411 60.3223 22.9848C60.6052 22.6426 61.0013 22.5285 61.3974 22.4715C61.7935 22.4715 62.1896 22.5855 62.416 22.8137C62.6989 22.9848 62.8121 23.384 62.8687 23.8403H62.3028C62.2462 23.4411 62.133 23.27 61.9067 23.1559C61.7935 23.0989 61.6238 23.0418 61.3974 23.0418C61.1711 23.0418 60.9447 23.1559 60.7184 23.4411C60.5486 23.6122 60.492 23.9544 60.4354 24.3536C60.4354 24.6958 60.4354 25.0951 60.5486 25.3232C60.7749 25.7224 61.1145 25.8935 61.454 25.8935C61.7935 25.8935 62.0765 25.6654 62.133 25.4943C62.133 25.3232 62.1896 25.1521 62.2462 24.981ZM63.6609 26.2357V22.6426H64.2268V26.2357H63.6609ZM65.4717 26.2357V21.2167H66.0376V26.2357H65.4717ZM67.2259 26.2357V22.6426H67.7918V26.2357H67.2259ZM68.9235 21.2167H69.4894V24.1255L71.0173 22.6426H71.7529L70.508 23.8973L71.9793 26.2357H71.3002L70.1119 24.2966L69.546 24.8669V26.2357H68.9801V21.2167H68.9235ZM76.0536 23.8403C76.0536 24.2966 75.6574 24.6958 75.2048 24.6958C74.7521 24.6958 74.3559 24.2966 74.3559 23.8403C74.3559 23.384 74.7521 22.9848 75.2048 22.9848C75.6574 22.9848 76.0536 23.384 76.0536 23.8403ZM81.203 24.1255V23.5551H83.2968V26.2357H82.9007L82.7309 25.6084C82.3348 25.9506 81.9387 26.3498 80.9767 26.3498C80.4674 26.3498 79.8449 26.0646 79.6186 25.8935C78.9961 25.3232 78.7698 24.4677 78.7698 23.7833C78.7698 23.0418 78.9961 22.2433 79.6186 21.673C79.8449 21.4449 80.4674 21.1597 81.1464 21.1597C81.5425 21.1597 81.9387 21.2167 82.2216 21.3878C83.0704 21.8441 83.1836 22.4715 83.2402 22.8137H82.6177C82.5611 22.4144 82.1084 21.7871 81.1464 21.7871C80.6937 21.7871 80.241 21.9582 79.9581 22.2433C79.6186 22.5855 79.3922 23.2129 79.3922 23.8403C79.3922 24.4677 79.6186 25.0951 79.9581 25.4373C80.241 25.7795 80.7503 25.8935 81.1464 25.8935C81.486 25.8935 81.7689 25.8365 81.9952 25.6654C82.7309 25.1521 82.6743 24.5247 82.6743 24.2395H81.203V24.1255ZM84.8246 21.3878H85.4471V22.0722H84.8246V21.3878ZM86.013 21.3878H86.6354V22.0722H86.013V21.3878ZM87.1447 26.2357H86.5788V25.8365C86.4657 26.0076 86.2959 26.1787 86.1827 26.2357C86.013 26.3498 85.73 26.4068 85.4471 26.4068C85.2207 26.4068 84.9378 26.3498 84.8812 26.3498C84.5983 26.1787 84.3719 25.9506 84.3153 25.5513V22.6426H84.8812V25.2091C84.8812 25.4943 84.9944 25.6654 85.1642 25.7795C85.2773 25.8365 85.3905 25.8935 85.5037 25.8935C85.6169 25.8935 85.7866 25.8935 85.8998 25.8365C86.5223 25.6084 86.5788 25.0951 86.5788 24.5817V22.6426H87.1447V26.2357ZM88.2199 26.2357V22.6426H88.7857V23.0989C88.8989 22.9848 89.0121 22.7567 89.1819 22.6996C89.3516 22.5856 89.578 22.5285 89.8609 22.5285C90.0873 22.5285 90.257 22.5285 90.4834 22.6426C90.5965 22.7567 90.7097 22.8137 90.8795 23.0418C91.0493 22.8707 91.1624 22.6996 91.3888 22.5856C91.5585 22.5285 91.7849 22.4715 91.8981 22.4715C92.1244 22.4715 92.4073 22.4715 92.5771 22.5856C92.8035 22.6996 93.0298 23.0418 93.0298 23.384V26.2357H92.4639V23.6692C92.4073 23.2129 92.1244 23.0418 91.7849 23.0418C91.2756 23.0418 91.0492 23.4411 90.9927 23.7833V26.2357H90.4268V23.6122C90.3702 23.1559 90.0307 22.9848 89.7477 22.9848C89.295 22.9848 88.9555 23.384 88.8989 23.8403V26.1787H88.2199V26.2357ZM93.9352 26.2357V22.6426H94.5011V23.2129C94.7274 22.8137 95.067 22.5855 95.3499 22.5285H95.6894V23.1559C95.4631 23.1559 95.2933 23.1559 95.1236 23.2129C94.7274 23.384 94.5011 23.7262 94.5011 24.3536V26.2357H93.9352ZM96.8212 21.3878H97.4436V22.0722H96.8212V21.3878ZM98.0095 21.3878H98.632V22.0722H98.0095V21.3878ZM99.1413 26.2357H98.5754V25.8365C98.4622 26.0076 98.2924 26.1787 98.1793 26.2357C98.0095 26.3498 97.7266 26.4068 97.4436 26.4068C97.2173 26.4068 96.9343 26.3498 96.8778 26.3498C96.5948 26.1787 96.3685 25.9506 96.3119 25.5513V22.6426H96.8778V25.2091C96.8778 25.4943 96.9909 25.6654 97.1607 25.7795C97.2739 25.8365 97.387 25.8935 97.5002 25.8935C97.6134 25.8935 97.7832 25.8935 97.8963 25.8365C98.5188 25.6084 98.5754 25.0951 98.5754 24.5817V22.6426H99.1413V26.2357ZM100.103 21.2167H100.669V24.1255L102.197 22.6426H102.933L101.688 23.8973L103.159 26.2357H102.423L101.235 24.2966L100.669 24.8669V26.2357H100.103V21.2167ZM107.233 23.8403C107.233 24.2966 106.837 24.6958 106.384 24.6958C105.932 24.6958 105.536 24.2966 105.536 23.8403C105.536 23.384 105.932 22.9848 106.384 22.9848C106.837 22.9848 107.233 23.384 107.233 23.8403ZM110.176 21.2167H110.798V25.6654H113.232V26.2357H110.119V21.2167H110.176ZM114.024 25.6654C113.797 25.3232 113.741 24.8669 113.741 24.4106C113.741 23.9544 113.797 23.5551 114.024 23.1559C114.307 22.6426 114.873 22.4715 115.382 22.4715C115.891 22.4715 116.4 22.6426 116.74 23.1559C116.966 23.4981 117.023 23.9544 117.023 24.4106C117.023 24.8669 116.966 25.2662 116.74 25.6654C116.457 26.1787 115.891 26.3498 115.382 26.3498C114.816 26.4068 114.307 26.1787 114.024 25.6654ZM115.325 25.8365C115.665 25.8365 116.004 25.6654 116.174 25.2662C116.287 24.981 116.344 24.7529 116.344 24.4677C116.344 24.1825 116.287 23.9544 116.174 23.6692C116.004 23.27 115.665 23.0989 115.325 23.0989C114.986 23.0989 114.646 23.2129 114.42 23.6692C114.363 23.9544 114.25 24.1825 114.25 24.4677C114.25 24.7529 114.307 25.038 114.42 25.2662C114.646 25.6654 115.042 25.8365 115.325 25.8365ZM117.815 21.9582V21.2167H118.381V21.9582H117.815ZM117.249 27.7757V27.2624L117.589 27.2053C117.759 27.2053 117.872 26.9772 117.872 26.9202V22.6426H118.438V27.0342C118.438 27.2053 118.324 27.5475 117.928 27.7186C117.645 27.7757 117.419 27.7757 117.249 27.7757ZM119.965 22.6426V26.2357H119.4V22.6426H119.965ZM119.965 21.2167V21.9582H119.4V21.2167H119.965ZM120.758 25.1521H121.324C121.38 25.4373 121.38 25.6654 121.946 25.8365C122.003 25.8365 122.116 25.8935 122.172 25.8935C122.286 25.8935 122.342 25.8935 122.455 25.8935C122.625 25.8935 122.795 25.8365 122.908 25.7224C123.021 25.6084 123.134 25.4943 123.134 25.2662C123.134 25.0951 123.021 24.924 122.738 24.8099C122.286 24.6958 121.72 24.5818 121.38 24.4677C121.097 24.3536 120.871 24.1255 120.871 23.6122C120.871 22.9278 121.493 22.5285 122.172 22.5285C123.361 22.5285 123.53 23.2129 123.53 23.6692H122.965C122.965 23.5551 123.021 23.0989 122.116 23.0989C121.72 23.0989 121.493 23.27 121.437 23.4981C121.38 23.6692 121.437 23.8973 121.606 24.0114C121.833 24.1255 122.116 24.1825 122.455 24.2966C122.738 24.3536 123.021 24.4106 123.304 24.5817C123.644 24.7529 123.757 25.1521 123.7 25.4943C123.644 25.8365 123.417 26.1787 123.078 26.3498C122.908 26.4068 122.682 26.4639 122.399 26.5209C122.172 26.5209 121.946 26.5209 121.72 26.4639C120.927 26.2928 120.814 25.6654 120.814 25.3802V25.1521H120.758ZM125.171 21.616V22.5856H125.737V23.0989H125.171V25.6084C125.171 25.8365 125.398 25.8365 125.737 25.7795V26.2928C125.511 26.3498 125.341 26.3498 125.115 26.3498C124.719 26.2928 124.606 25.9506 124.606 25.8365V23.1559H124.096V22.6426H124.606V21.673H125.171V21.616ZM126.982 22.6426V26.2357H126.416V22.6426H126.982ZM126.982 21.2167V21.9582H126.416V21.2167H126.982Z" fill="white"/>
</svg>
