<svg width="202" height="46" viewBox="0 0 202 46" fill="none" xmlns="http://www.w3.org/2000/svg">
<path d="M197.288 32.5323H198.161V36.9924L200.517 34.7186H201.651L199.731 36.6426L202 40.2281H200.953L199.121 37.2548L198.248 38.1293V40.2281H197.375V32.5323H197.288ZM110.467 23.6996V5.94676H114.568V20.3764H127.919V23.6996H110.467ZM86.3845 20.289H99.9966V9.0076H86.3845V20.289ZM82.2834 10.057C82.2834 8.48289 82.5451 7.346 83.1559 6.73384C83.7667 6.12167 84.9011 5.85931 86.6462 5.85931H99.7348C101.48 5.85931 102.614 6.12167 103.225 6.73384C103.836 7.346 104.098 8.39544 104.098 10.057V19.4145C104.098 21.076 103.836 22.1255 103.225 22.7376C102.614 23.3498 101.48 23.6122 99.7348 23.6122H86.6462C84.9011 23.6122 83.7667 23.3498 83.1559 22.7376C82.5451 22.1255 82.2834 21.076 82.2834 19.4145V10.057ZM76.3499 9.0076H60.9054V12.8555H71.987C73.7322 12.8555 74.8665 13.1179 75.4773 13.73C76.0881 14.3422 76.4371 15.3916 76.4371 17.0532V19.5019C76.4371 21.076 76.0881 22.2129 75.4773 22.8251C74.8665 23.4373 73.7322 23.6996 71.987 23.6996H57.2406V20.3764H72.6851V16.2662H61.6907C59.9456 16.2662 58.8112 16.0038 58.2004 15.3916C57.5896 14.7795 57.3279 13.73 57.3279 12.0684V10.057C57.3279 8.48289 57.5896 7.346 58.2004 6.73384C58.8112 6.12167 59.9456 5.85931 61.6907 5.85931H76.4371V9.0076H76.3499ZM182.978 23.6996V21.7757L195.368 9.09506H184.2V5.94676H202V7.69581L189.435 20.3764H202V23.6996H182.978ZM165.701 16.5285H173.467L169.628 9.26996L165.701 16.5285ZM157.761 23.6996L167.795 5.94676H171.809L182.018 23.6996H177.394L175.299 19.7643H164.043L161.949 23.6996H157.761ZM131.584 23.6996V5.94676H134.899L143.276 16.7034L151.478 5.94676H154.794V23.6996H150.955V12.6806C150.955 12.5057 150.955 12.1559 150.955 11.8935L151.042 10.7566C150.78 11.1939 150.606 11.6312 150.431 11.8935C150.257 12.1559 150.082 12.4183 149.995 12.5932L143.363 21.5133H142.578L135.859 12.5932C135.597 12.2433 135.423 11.981 135.248 11.6312C135.074 11.3688 134.899 11.019 134.812 10.7566L134.899 11.8061V12.6806V23.6996H131.584ZM40.2255 0H46.159V40.0532C46.159 43.289 43.5413 46 40.2255 46H5.84622H0V5.94676C0 2.71102 2.61771 0 5.93348 0H40.2255ZM40.2255 1.31179H5.84622C3.31577 1.31179 1.2216 3.41064 1.2216 5.94676V44.7757H5.84622H40.2255C42.7559 44.7757 44.8501 42.6768 44.8501 40.1407V1.31179H40.2255ZM22.9486 23.0875C22.9486 23.0875 28.184 23 29.9292 23C31.8488 23 33.0704 23.1749 34.641 24.0494C36.2117 24.9239 37.5205 26.0608 38.3931 28.0722C39.2657 29.9962 39.8765 34.5437 36.7352 37.5171C33.594 40.4905 30.6272 40.2281 30.6272 40.2281H6.54428V31.9201H34.9901L22.9486 23.0875L15.968 23.1749C14.0484 23.1749 12.8268 23 11.2562 22.1255C9.68553 21.2509 8.37667 20.1141 7.5041 18.1027C6.63153 16.1787 6.02073 11.6312 9.16199 8.6578C12.3032 5.68441 15.27 5.94676 15.27 5.94676H39.2657V14.2547H10.8199L22.9486 23.0875ZM59.7711 40.2281V33.4068H57.2406V32.5323H63.2613V33.4068H60.7309V40.2281H59.7711ZM67.5369 35.6806V39.4411C67.5369 39.616 67.886 39.7909 68.1477 39.7909V40.4905L67.4497 40.5779C67.0134 40.4905 66.7516 40.1407 66.6644 39.7909C66.2281 40.1407 65.7045 40.5779 64.9192 40.5779C63.6976 40.6654 62.9123 39.9658 62.9996 38.8289C63.0868 37.8669 63.6104 37.5171 64.1339 37.3422C65.0937 36.9924 65.6173 37.0798 66.1408 36.9924C66.2281 36.9924 66.5771 36.9049 66.5771 36.5551V35.943C66.4899 35.5932 65.7045 35.3308 65.0937 35.3308C64.1339 35.4183 64.0467 36.1179 64.0467 36.3802H63.1741V35.8555C63.2613 35.5057 63.5231 35.0684 64.1339 34.8061C64.3957 34.6312 64.7447 34.6312 65.0937 34.5437C65.4428 34.5437 65.8791 34.5437 66.2281 34.6312C67.0134 34.8061 67.5369 35.1559 67.5369 35.6806ZM66.6644 38.654V37.5171C65.9663 37.7795 64.9192 37.7795 64.4829 38.0418C64.3084 38.1293 63.9594 38.3916 63.9594 38.8289C63.9594 39.5285 64.4829 39.7909 64.9192 39.7909C66.0536 39.7909 66.6644 38.8289 66.6644 38.654ZM69.5438 42.4144L69.8056 41.9772C70.1546 42.1521 70.4164 42.327 70.7654 42.327C71.0272 42.327 71.2017 42.2395 71.3762 41.9772C71.4635 41.8897 71.3762 41.6274 71.2017 41.5399C70.94 41.4525 70.8527 41.4525 70.7654 41.5399L70.94 40.4905C70.6782 40.4905 70.5037 40.4905 70.3292 40.403C69.1076 40.1407 68.933 39.1787 68.933 38.7414V38.5665H69.8056C69.8929 39.0038 69.8929 39.3536 70.7654 39.616C70.8527 39.616 71.0272 39.7034 71.1145 39.7034C71.289 39.7034 71.3762 39.7034 71.5508 39.7034C71.8125 39.7034 72.0743 39.616 72.2488 39.4411C72.4233 39.2662 72.5978 39.0913 72.5978 38.7414C72.5978 38.4791 72.4233 38.2167 71.987 38.0418C71.289 37.8669 70.4164 37.692 69.8929 37.5171C69.4566 37.3422 69.1076 36.9924 69.1076 36.2053C69.1076 35.1559 70.0674 34.5437 71.1145 34.5437C72.9469 34.5437 73.2086 35.5931 73.2086 36.2928H72.3361C72.3361 36.1179 72.4233 35.4182 71.0272 35.4182C70.4164 35.4182 70.0674 35.6806 69.9801 36.0304C69.8929 36.2928 69.9801 36.6426 70.2419 36.8175C70.5909 36.9924 71.0272 37.0798 71.5508 37.2548C71.987 37.3422 72.4233 37.4297 72.8596 37.692C73.3832 37.9544 73.5577 38.5665 73.4704 39.0913C73.3832 39.616 73.0341 40.1407 72.5106 40.403C72.2488 40.4905 71.8998 40.5779 71.5508 40.6654L71.3762 41.2776H71.7253C71.8998 41.2776 72.0743 41.365 72.1616 41.4525C72.2488 41.5399 72.4233 41.8023 72.3361 42.0646C72.2488 42.6768 71.8125 42.8517 71.5508 42.8517C70.6782 42.7643 70.5037 42.7643 69.5438 42.4144ZM74.8665 40.2281V34.7186H75.7391V40.2281H74.8665ZM77.6588 40.2281V34.7186H78.5313V35.4182C78.7058 35.2433 78.8803 34.8935 79.1421 34.8061C79.4039 34.6312 79.7529 34.5437 80.1892 34.5437C80.5382 34.5437 80.8 34.5437 81.149 34.7186C81.3235 34.8935 81.4981 34.981 81.7598 35.3308C82.0216 35.0684 82.1961 34.8061 82.5451 34.6312C82.8069 34.5437 83.1559 34.4563 83.3305 34.4563C83.6795 34.4563 84.1158 34.4563 84.3775 34.6312C84.7266 34.8061 85.0756 35.3308 85.0756 35.8555V40.2281H84.203V36.2928C84.1158 35.5931 83.6795 35.3308 83.1559 35.3308C82.3706 35.3308 82.0216 35.943 81.9343 36.4677V40.2281H81.0618V36.2053C80.9745 35.5057 80.451 35.2433 80.0147 35.2433C79.3166 35.2433 78.7931 35.8555 78.7058 36.5551V40.1407H77.6588V40.2281ZM90.8346 35.6806V39.4411C90.8346 39.616 91.1836 39.7909 91.4454 39.7909V40.4905L90.7473 40.5779C90.311 40.4905 90.0493 40.1407 89.962 39.7909C89.5257 40.1407 89.0022 40.5779 88.2169 40.5779C86.9952 40.6654 86.2099 39.9658 86.2972 38.8289C86.3845 37.8669 86.908 37.5171 87.4315 37.3422C88.3914 36.9924 88.9149 37.0798 89.4384 36.9924C89.5257 36.9924 89.8747 36.9049 89.8747 36.5551V35.943C89.7875 35.5932 89.0022 35.3308 88.3914 35.3308C87.4315 35.4183 87.3443 36.1179 87.3443 36.3802H86.4717V35.8555C86.559 35.5057 86.8207 35.0684 87.4315 34.8061C87.6933 34.6312 88.0423 34.6312 88.3914 34.5437C88.7404 34.5437 89.1767 34.5437 89.5257 34.6312C90.2238 34.8061 90.8346 35.1559 90.8346 35.6806ZM89.8747 38.654V37.5171C89.1767 37.7795 88.1296 37.7795 87.6933 38.0418C87.5188 38.1293 87.1698 38.3916 87.1698 38.8289C87.1698 39.5285 87.6933 39.7909 88.1296 39.7909C89.3512 39.7909 89.8747 38.8289 89.8747 38.654ZM95.9827 38.3042H96.8553C96.8553 38.7414 96.6808 39.1787 96.5935 39.4411C96.1572 40.1407 95.2847 40.4905 94.4994 40.4905C93.714 40.4905 92.9287 40.0532 92.5797 39.3536C92.3179 38.9163 92.1434 38.2167 92.2307 37.4297C92.2307 36.73 92.4924 35.943 93.016 35.2433C93.4523 34.7186 94.0631 34.5437 94.6739 34.4563C95.2847 34.4563 95.8955 34.6312 96.2445 34.981C96.6808 35.2433 96.8553 35.8555 96.9426 36.5551H96.07C95.9827 35.943 95.8082 35.6806 95.4592 35.5057C95.2847 35.4183 95.0229 35.3308 94.6739 35.3308C94.3248 35.3308 93.9758 35.5057 93.6268 35.943C93.365 36.2053 93.2778 36.73 93.1905 37.3422C93.1905 37.8669 93.1905 38.4791 93.365 38.8289C93.714 39.4411 94.2376 39.7034 94.7611 39.7034C95.2847 39.7034 95.721 39.3536 95.8082 39.0913C95.8082 38.8289 95.8955 38.5665 95.9827 38.3042ZM98.1641 40.2281V34.7186H99.0367V40.2281H98.1641ZM100.956 40.2281V32.5323H101.829V40.2281H100.956ZM103.661 40.2281V34.7186H104.534V40.2281H103.661ZM106.279 32.5323H107.152V36.9924L109.508 34.7186H110.642L108.722 36.6426L110.991 40.2281H109.944L108.111 37.2548L107.239 38.1293V40.2281H106.366V32.5323H106.279ZM117.273 36.5551C117.273 37.2547 116.663 37.8669 115.965 37.8669C115.267 37.8669 114.656 37.2547 114.656 36.5551C114.656 35.8555 115.267 35.2433 115.965 35.2433C116.663 35.2433 117.273 35.8555 117.273 36.5551ZM125.214 36.9924V36.1179H128.442V40.2281H127.832L127.57 39.2662C126.959 39.7909 126.348 40.403 124.865 40.403C124.079 40.403 123.12 39.9658 122.771 39.7034C121.811 38.8289 121.462 37.5171 121.462 36.4677C121.462 35.3308 121.811 34.1065 122.771 33.2319C123.12 32.8821 124.079 32.4449 125.127 32.4449C125.737 32.4449 126.348 32.5323 126.784 32.7947C128.093 33.4943 128.268 34.4563 128.355 34.981H127.395C127.308 34.3688 126.61 33.4068 125.127 33.4068C124.429 33.4068 123.73 33.6692 123.294 34.1065C122.771 34.6312 122.422 35.5932 122.422 36.5551C122.422 37.5171 122.771 38.4791 123.294 39.0038C123.73 39.5285 124.516 39.7034 125.127 39.7034C125.65 39.7034 126.086 39.616 126.435 39.3536C127.57 38.5665 127.483 37.6046 127.483 37.1673H125.214V36.9924ZM130.798 32.7947H131.758V33.8441H130.798V32.7947ZM132.631 32.7947H133.59V33.8441H132.631V32.7947ZM134.376 40.2281H133.503V39.616C133.329 39.8783 133.067 40.1407 132.892 40.2281C132.631 40.403 132.194 40.4905 131.758 40.4905C131.409 40.4905 130.973 40.403 130.886 40.403C130.449 40.1407 130.1 39.7909 130.013 39.1787V34.7186H130.886V38.654C130.886 39.0913 131.06 39.3536 131.322 39.5285C131.496 39.616 131.671 39.7034 131.845 39.7034C132.02 39.7034 132.282 39.7034 132.456 39.616C133.416 39.2662 133.503 38.4791 133.503 37.692V34.7186H134.376V40.2281ZM136.034 40.2281V34.7186H136.906V35.4182C137.081 35.2433 137.255 34.8935 137.517 34.8061C137.779 34.6312 138.128 34.5437 138.564 34.5437C138.913 34.5437 139.175 34.5437 139.524 34.7186C139.698 34.8935 139.873 34.981 140.135 35.3308C140.397 35.0684 140.571 34.8061 140.92 34.6312C141.182 34.5437 141.531 34.4563 141.705 34.4563C142.054 34.4563 142.491 34.4563 142.752 34.6312C143.102 34.8061 143.451 35.3308 143.451 35.8555V40.2281H142.578V36.2928C142.491 35.5931 142.054 35.3308 141.531 35.3308C140.746 35.3308 140.397 35.943 140.309 36.4677V40.2281H139.437V36.2053C139.349 35.5057 138.826 35.2433 138.39 35.2433C137.692 35.2433 137.168 35.8555 137.081 36.5551V40.1407H136.034V40.2281ZM144.847 40.2281V34.7186H145.719V35.5932C146.068 34.981 146.592 34.6312 147.028 34.5437H147.552V35.5057C147.203 35.5057 146.941 35.5057 146.679 35.5932C146.068 35.8555 145.719 36.3802 145.719 37.3422V40.2281H144.847ZM149.297 32.7947H150.257V33.8441H149.297V32.7947ZM151.129 32.7947H152.089V33.8441H151.129V32.7947ZM152.874 40.2281H152.002V39.616C151.827 39.8783 151.565 40.1407 151.391 40.2281C151.129 40.403 150.693 40.4905 150.257 40.4905C149.908 40.4905 149.471 40.403 149.384 40.403C148.948 40.1407 148.599 39.7909 148.511 39.1787V34.7186H149.384V38.654C149.384 39.0913 149.559 39.3536 149.82 39.5285C149.995 39.616 150.169 39.7034 150.344 39.7034C150.518 39.7034 150.78 39.7034 150.955 39.616C151.914 39.2662 152.002 38.4791 152.002 37.692V34.7186H152.874V40.2281ZM154.358 32.5323H155.23V36.9924L157.586 34.7186H158.721L156.801 36.6426L159.07 40.2281H157.935L156.103 37.2548L155.23 38.1293V40.2281H154.358V32.5323ZM165.352 36.5551C165.352 37.2547 164.741 37.8669 164.043 37.8669C163.345 37.8669 162.734 37.2547 162.734 36.5551C162.734 35.8555 163.345 35.2433 164.043 35.2433C164.741 35.2433 165.352 35.8555 165.352 36.5551ZM169.889 32.5323H170.849V39.3536H174.601V40.2281H169.802V32.5323H169.889ZM175.823 39.3536C175.474 38.8289 175.387 38.1293 175.387 37.4297C175.387 36.73 175.474 36.1179 175.823 35.5057C176.259 34.7186 177.132 34.4563 177.917 34.4563C178.702 34.4563 179.488 34.7186 180.011 35.5057C180.36 36.0304 180.448 36.73 180.448 37.4297C180.448 38.1293 180.36 38.7414 180.011 39.3536C179.575 40.1407 178.702 40.403 177.917 40.403C177.044 40.4905 176.259 40.1407 175.823 39.3536ZM177.83 39.616C178.353 39.616 178.877 39.3536 179.139 38.7414C179.313 38.3042 179.4 37.9544 179.4 37.5171C179.4 37.0798 179.313 36.73 179.139 36.2928C178.877 35.6806 178.353 35.4182 177.83 35.4182C177.306 35.4182 176.783 35.5931 176.434 36.2928C176.346 36.73 176.172 37.0798 176.172 37.5171C176.172 37.9544 176.259 38.3916 176.434 38.7414C176.783 39.3536 177.394 39.616 177.83 39.616ZM181.669 33.6692V32.5323H182.542V33.6692H181.669ZM180.797 42.5894V41.8023L181.32 41.7148C181.582 41.7148 181.756 41.365 181.756 41.2776V34.7186H182.629V41.4525C182.629 41.7148 182.454 42.2395 181.844 42.5019C181.407 42.5894 181.058 42.5894 180.797 42.5894ZM184.985 34.7186V40.2281H184.112V34.7186H184.985ZM184.985 32.5323V33.6692H184.112V32.5323H184.985ZM186.206 38.5665H187.079C187.166 39.0038 187.166 39.3536 188.039 39.616C188.126 39.616 188.301 39.7034 188.388 39.7034C188.562 39.7034 188.65 39.7034 188.824 39.7034C189.086 39.7034 189.348 39.616 189.522 39.4411C189.697 39.2662 189.871 39.0913 189.871 38.7414C189.871 38.4791 189.697 38.2167 189.26 38.0418C188.562 37.8669 187.69 37.692 187.166 37.5171C186.73 37.3422 186.381 36.9924 186.381 36.2053C186.381 35.1559 187.341 34.5437 188.388 34.5437C190.22 34.5437 190.482 35.5931 190.482 36.2928H189.61C189.61 36.1179 189.697 35.4182 188.301 35.4182C187.69 35.4182 187.341 35.6806 187.254 36.0304C187.166 36.2928 187.254 36.6426 187.515 36.8175C187.864 36.9924 188.301 37.0798 188.824 37.2548C189.26 37.3422 189.697 37.4297 190.133 37.692C190.657 37.9544 190.831 38.5665 190.744 39.0913C190.657 39.616 190.308 40.1407 189.784 40.403C189.522 40.4905 189.173 40.5779 188.737 40.6654C188.388 40.6654 188.039 40.6654 187.69 40.5779C186.468 40.3156 186.294 39.3536 186.294 38.9163V38.5665H186.206ZM193.013 33.1445V34.6312H193.885V35.4182H193.013V39.2662C193.013 39.616 193.362 39.616 193.885 39.5285V40.3156C193.536 40.403 193.274 40.403 192.925 40.403C192.314 40.3156 192.14 39.7909 192.14 39.616V35.5057H191.355V34.7186H192.14V33.2319H193.013V33.1445ZM195.805 34.7186V40.2281H194.932V34.7186H195.805ZM195.805 32.5323V33.6692H194.932V32.5323H195.805Z" fill="#00188A"/>
</svg>
